<svg width="30" height="30" viewBox="0 0 30 30" fill="none" xmlns="http://www.w3.org/2000/svg">
<path d="M3.48174 19.1891L4.20964 19.0083L3.48174 19.1891ZM3.48174 11.3109L2.75385 11.1302L3.48174 11.3109ZM26.2683 11.3109L26.9962 11.1302L26.2683 11.3109ZM26.2683 19.1891L26.9962 19.3698L26.2683 19.1891ZM18.7695 26.0737L18.6072 25.3414H18.6072L18.7695 26.0737ZM10.9805 26.0737L11.1428 25.3414L10.9805 26.0737ZM10.9805 4.42631L10.8183 3.69407V3.69407L10.9805 4.42631ZM18.7695 4.42631L18.6072 5.15855L18.6072 5.15855L18.7695 4.42631ZM10.4132 25.948L10.2509 26.6802L10.4132 25.948ZM19.3368 25.948L19.4991 26.6802H19.4991L19.3368 25.948ZM19.3368 4.55202L19.4991 3.81978V3.81978L19.3368 4.55202ZM10.4132 4.55202L10.5755 5.28426L10.4132 4.55202ZM5.68881 7.76525C5.35178 7.52446 4.88335 7.60248 4.64256 7.93951C4.40177 8.27654 4.47979 8.74497 4.81683 8.98576L5.68881 7.76525ZM12.4781 13.5375L12.0421 14.1478L12.4781 13.5375ZM17.2719 13.5375L17.7079 14.1478L17.2719 13.5375ZM24.9332 8.98576C25.2702 8.74497 25.3482 8.27654 25.1074 7.93951C24.8666 7.60248 24.3982 7.52446 24.0612 7.76525L24.9332 8.98576ZM10.5755 5.28426L11.1428 5.15855L10.8183 3.69407L10.2509 3.81978L10.5755 5.28426ZM18.6072 5.15855L19.1745 5.28426L19.4991 3.81978L18.9317 3.69407L18.6072 5.15855ZM19.1745 25.2157L18.6072 25.3414L18.9317 26.8059L19.4991 26.6802L19.1745 25.2157ZM11.1428 25.3414L10.5754 25.2157L10.2509 26.6802L10.8183 26.8059L11.1428 25.3414ZM4.20964 19.0083C3.59679 16.5403 3.59679 13.9597 4.20964 11.4917L2.75385 11.1302C2.08205 13.8356 2.08205 16.6644 2.75385 19.3698L4.20964 19.0083ZM25.5404 11.4917C26.1532 13.9597 26.1532 16.5403 25.5404 19.0083L26.9962 19.3698C27.6679 16.6644 27.6679 13.8356 26.9962 11.1302L25.5404 11.4917ZM18.6072 25.3414C16.1489 25.8862 13.6011 25.8862 11.1428 25.3414L10.8183 26.8059C13.4904 27.398 16.2596 27.398 18.9317 26.8059L18.6072 25.3414ZM11.1428 5.15855C13.6011 4.61382 16.1489 4.61382 18.6072 5.15855L18.9317 3.69407C16.2596 3.10198 13.4904 3.10198 10.8183 3.69407L11.1428 5.15855ZM10.5754 25.2157C7.44777 24.5227 4.98187 22.1183 4.20964 19.0083L2.75385 19.3698C3.66325 23.0322 6.56726 25.864 10.2509 26.6802L10.5754 25.2157ZM19.4991 26.6802C23.1827 25.864 26.0868 23.0322 26.9962 19.3698L25.5404 19.0083C24.7681 22.1182 22.3022 24.5227 19.1745 25.2157L19.4991 26.6802ZM19.1745 5.28426C22.3022 5.97731 24.7681 8.38175 25.5404 11.4917L26.9962 11.1302C26.0868 7.46784 23.1827 4.63603 19.4991 3.81978L19.1745 5.28426ZM10.2509 3.81978C6.56727 4.63603 3.66325 7.46784 2.75385 11.1302L4.20964 11.4917C4.98187 8.38175 7.44777 5.97731 10.5755 5.28426L10.2509 3.81978ZM4.81683 8.98576L12.0421 14.1478L12.9141 12.9273L5.68881 7.76525L4.81683 8.98576ZM17.7079 14.1478L24.9332 8.98576L24.0612 7.76525L16.8359 12.9273L17.7079 14.1478ZM12.0421 14.1478C13.7367 15.3585 16.0133 15.3585 17.7079 14.1478L16.8359 12.9273C15.6629 13.7654 14.0871 13.7654 12.9141 12.9273L12.0421 14.1478Z" fill="#757575"/>
</svg>
