<svg width="31" height="30" viewBox="0 0 31 30" fill="none" xmlns="http://www.w3.org/2000/svg">
<path fill-rule="evenodd" clip-rule="evenodd" d="M11.5121 4.4037C14.1388 3.86543 16.8612 3.86543 19.4879 4.4037L20.0374 4.5163C22.3043 4.98081 24.2747 6.15407 25.6632 7.77864C25.8898 8.04382 25.8136 8.42617 25.5143 8.62002L17.2178 13.9918C16.1864 14.6596 14.8136 14.6596 13.7821 13.9918L5.48574 8.62003C5.18635 8.42618 5.11015 8.04383 5.3368 7.77865C6.7253 6.15408 8.69572 4.98081 10.9626 4.5163L11.5121 4.4037ZM4.65608 10.3376C4.30867 10.1127 3.82439 10.2417 3.69286 10.6146C3.61941 10.8228 3.55369 11.0345 3.49603 11.2492C2.83466 13.7123 2.83466 16.2877 3.49603 18.7508C4.40176 22.1239 7.29398 24.732 10.9626 25.4837L11.5121 25.5963C14.1388 26.1346 16.8612 26.1346 19.4879 25.5963L20.0374 25.4837C23.706 24.732 26.5982 22.1239 27.504 18.7508C28.1653 16.2877 28.1653 13.7123 27.504 11.2492C27.4463 11.0345 27.3806 10.8228 27.3071 10.6145C27.1756 10.2416 26.6913 10.1127 26.3439 10.3376L18.3631 15.5051C16.644 16.6181 14.356 16.6181 12.6369 15.5051L4.65608 10.3376Z" fill="#009688"/>
</svg>
