<svg width="30" height="30" viewBox="0 0 30 30" fill="none" xmlns="http://www.w3.org/2000/svg">
<path fill-rule="evenodd" clip-rule="evenodd" d="M18.7128 4.17962C16.2707 3.60679 13.7293 3.60679 11.2872 4.17962C7.76052 5.00687 5.00687 7.76052 4.17962 11.2872C3.60679 13.7293 3.60679 16.2708 4.17962 18.7128C5.00687 22.2395 7.76052 24.9931 11.2872 25.8204C13.7293 26.3932 16.2707 26.3932 18.7128 25.8204C22.2395 24.9931 24.9931 22.2395 25.8204 18.7128C26.3932 16.2707 26.3932 13.7293 25.8204 11.2872C24.9931 7.76052 22.2395 5.00687 18.7128 4.17962ZM10.6922 11.4101C10.6922 11.0136 11.0137 10.6922 11.4102 10.6922H16.1966C16.5931 10.6922 16.9146 11.0136 16.9146 11.4101C16.9146 11.8067 16.5931 12.1281 16.1966 12.1281H11.4102C11.0137 12.1281 10.6922 11.8067 10.6922 11.4101ZM10.6922 15C10.6922 14.6034 11.0137 14.282 11.4102 14.282H18.5898C18.9863 14.282 19.3078 14.6034 19.3078 15C19.3078 15.3965 18.9863 15.7179 18.5898 15.7179H11.4102C11.0137 15.7179 10.6922 15.3965 10.6922 15ZM10.6922 18.5898C10.6922 18.1933 11.0137 17.8718 11.4102 17.8718H15C15.3965 17.8718 15.718 18.1933 15.718 18.5898C15.718 18.9863 15.3965 19.3078 15 19.3078H11.4102C11.0137 19.3078 10.6922 18.9863 10.6922 18.5898Z" fill="#009688"/>
</svg>
