<svg width="30" height="30" viewBox="0 0 30 30" fill="none" xmlns="http://www.w3.org/2000/svg">
<path d="M15 3C11.8704 3 9.33333 5.50081 9.33333 8.58571C9.33333 11.6706 11.8704 14.1714 15 14.1714C18.1296 14.1714 20.6667 11.6706 20.6667 8.58571C20.6667 5.50081 18.1296 3 15 3Z" fill="#009688"/>
<path d="M18.3441 16.6565C16.1287 16.3079 13.8713 16.3079 11.6559 16.6565L11.4184 16.6938C8.2969 17.1849 6 19.8389 6 22.9548C6 24.6366 7.38312 26 9.08929 26H20.9107C22.6169 26 24 24.6366 24 22.9548C24 19.8389 21.7031 17.1849 18.5816 16.6938L18.3441 16.6565Z" fill="#009688"/>
</svg>
