<svg width="30" height="30" viewBox="0 0 30 30" fill="none" xmlns="http://www.w3.org/2000/svg">
<path d="M7 23.6918C7 20.7425 9.06104 18.2303 11.8621 17.7655L12.1144 17.7236C14.3573 17.3514 16.6427 17.3514 18.8856 17.7236L19.1379 17.7655C21.939 18.2303 24 20.7425 24 23.6918C24 24.9666 23.0061 26 21.7801 26H9.21987C7.99387 26 7 24.9666 7 23.6918Z" stroke="#757575" stroke-width="1.5"/>
<path d="M20.4584 8.8125C20.4584 11.4704 18.2384 13.625 15.5 13.625C12.7616 13.625 10.5417 11.4704 10.5417 8.8125C10.5417 6.15463 12.7616 4 15.5 4C18.2384 4 20.4584 6.15463 20.4584 8.8125Z" stroke="#757575" stroke-width="1.5"/>
</svg>
