<svg width="23" height="23" viewBox="0 0 23 23" fill="none" xmlns="http://www.w3.org/2000/svg">
<path d="M6.36634 18.7278C12.7215 21.7725 17.8812 18.7466 19.2052 15.9787C21.2049 12.7282 19.0677 12.0075 16.8056 13.1926L16.778 13.207C14.7838 14.2518 12.3915 15.5052 9.20675 13.538C11.2065 12.2639 10.0735 11.3351 10.0735 11.3351C10.0735 11.3351 7.16075 9.73213 4.24798 13.538L2.12959 14.922C1.60002 16.3059 2.81335 19.6936 3.60773 19.6936L6.36634 18.7278Z" fill="#009688"/>
<path d="M18 10.0542C14.6333 11.7672 11.2979 10.7679 10.051 10.0542C9.67689 7.77018 11.4537 6.24756 12.3889 5.77174C12.5333 5.66152 12.8451 5.53086 13.324 5.47915C14.2592 5.47915 14.6582 5.4653 15.662 5.77174C17.5324 6.34273 18 8.86461 18 10.0542Z" fill="#009688"/>
<path d="M15.1944 5.41485C14.0722 5.12933 13.1682 5.29588 12.8565 5.41485L11.9213 3.63055C13.4176 2.48856 15.3503 3.15472 16.1296 3.63055L15.1944 5.41485Z" fill="#009688"/>
</svg>
