<svg width="24" height="24" viewBox="0 0 24 24" fill="none" xmlns="http://www.w3.org/2000/svg">
<path d="M7.36634 18.7278C13.7215 21.7725 18.8812 18.7466 20.2052 15.9787C22.2049 12.7282 20.0677 12.0075 17.8056 13.1926L17.778 13.207C15.7838 14.2518 13.3915 15.5052 10.2068 13.538C12.2065 12.2639 11.0735 11.3351 11.0735 11.3351C11.0735 11.3351 8.16075 9.73213 5.24798 13.538L3.12959 14.922C2.60002 16.3059 3.81335 19.6936 4.60773 19.6936L7.36634 18.7278Z" stroke="#757575"/>
<path d="M14.324 5.47915C15.2592 5.47915 15.6582 5.4653 16.662 5.77174C18.5324 6.34273 19 8.86461 19 10.0542C15.6333 11.7672 12.2979 10.7679 11.051 10.0542C10.6769 7.77018 12.4537 6.24756 13.3889 5.77174C13.5333 5.66152 13.8451 5.53086 14.324 5.47915ZM14.324 5.47915L16.0265 5.60441M13.8565 5.41485C14.1682 5.29588 15.0722 5.12933 16.1944 5.41485L17.1296 3.63055C16.3503 3.15472 14.4176 2.48856 12.9213 3.63055L13.8565 5.41485Z" stroke="#757575"/>
</svg>
